<?xml version="1.0" encoding="UTF-8" standalone="no"?>
<!-- Created with Inkscape (http://www.inkscape.org/) -->

<svg
   version="1.1"
   id="svg1"
   width="392"
   height="557.44"
   viewBox="0 0 392 557.44"
   sodipodi:docname="Pipeline.pdf"
   xmlns:inkscape="http://www.inkscape.org/namespaces/inkscape"
   xmlns:sodipodi="http://sodipodi.sourceforge.net/DTD/sodipodi-0.dtd"
   xmlns="http://www.w3.org/2000/svg"
   xmlns:svg="http://www.w3.org/2000/svg">
  <defs
     id="defs1">
    <clipPath
       clipPathUnits="userSpaceOnUse"
       id="clipPath2">
      <path
         d="M 81.250008,115.625 H 1146.8751 V 1621.8751 H 81.250008 Z"
         transform="matrix(0.37112079,0,0,0.37112079,67.181121,105.42942)"
         clip-rule="evenodd"
         id="path2" />
    </clipPath>
    <clipPath
       clipPathUnits="userSpaceOnUse"
       id="clipPath4">
      <path
         d="M 81.250008,115.625 H 1146.8751 V 1621.8751 H 81.250008 Z"
         transform="matrix(0.37112079,0,0,0.37112079,67.181121,105.42942)"
         clip-rule="evenodd"
         id="path4" />
    </clipPath>
    <clipPath
       clipPathUnits="userSpaceOnUse"
       id="clipPath6">
      <path
         d="M 81.250008,115.625 H 1146.8751 V 1621.8751 H 81.250008 Z"
         transform="matrix(0.37112079,0,0,0.37112079,67.181121,105.42942)"
         clip-rule="evenodd"
         id="path6" />
    </clipPath>
    <clipPath
       clipPathUnits="userSpaceOnUse"
       id="clipPath7">
      <path
         d="M 81.250008,115.625 H 1146.8751 V 1621.8751 H 81.250008 Z"
         transform="matrix(0.37112079,0,0,0.37112079,-173.61576,-56.070589)"
         clip-rule="evenodd"
         id="path7" />
    </clipPath>
    <clipPath
       clipPathUnits="userSpaceOnUse"
       id="clipPath8">
      <path
         d="M 81.250008,115.625 H 1146.8751 V 1621.8751 H 81.250008 Z"
         transform="matrix(0.37112079,0,0,0.37112079,-177.28763,-71.070589)"
         clip-rule="evenodd"
         id="path8" />
    </clipPath>
    <clipPath
       clipPathUnits="userSpaceOnUse"
       id="clipPath10">
      <path
         d="M 81.250008,115.625 H 1146.8751 V 1621.8751 H 81.250008 Z"
         transform="matrix(0.37112079,0,0,0.37112079,67.181121,105.42942)"
         clip-rule="evenodd"
         id="path10" />
    </clipPath>
    <clipPath
       clipPathUnits="userSpaceOnUse"
       id="clipPath12">
      <path
         d="M 81.250008,115.625 H 1146.8751 V 1621.8751 H 81.250008 Z"
         transform="matrix(0.37112079,0,0,0.37112079,67.181121,105.42942)"
         clip-rule="evenodd"
         id="path12" />
    </clipPath>
    <clipPath
       clipPathUnits="userSpaceOnUse"
       id="clipPath14">
      <path
         d="M 81.250008,115.625 H 1146.8751 V 1621.8751 H 81.250008 Z"
         transform="matrix(0.37112079,0,0,0.37112079,67.181121,105.42942)"
         clip-rule="evenodd"
         id="path14" />
    </clipPath>
    <clipPath
       clipPathUnits="userSpaceOnUse"
       id="clipPath16">
      <path
         d="M 81.250008,115.625 H 1146.8751 V 1621.8751 H 81.250008 Z"
         transform="matrix(0.37112079,0,0,0.37112079,67.181121,105.42942)"
         clip-rule="evenodd"
         id="path16" />
    </clipPath>
    <clipPath
       clipPathUnits="userSpaceOnUse"
       id="clipPath18">
      <path
         d="M 81.250008,115.625 H 1146.8751 V 1621.8751 H 81.250008 Z"
         transform="matrix(0.37112079,0,0,0.37112079,67.181121,105.42942)"
         clip-rule="evenodd"
         id="path18" />
    </clipPath>
    <clipPath
       clipPathUnits="userSpaceOnUse"
       id="clipPath19">
      <path
         d="M 81.250008,115.625 H 1146.8751 V 1621.8751 H 81.250008 Z"
         transform="matrix(0.37112079,0,0,0.37112079,-217.97514,-163.07059)"
         clip-rule="evenodd"
         id="path19" />
    </clipPath>
    <clipPath
       clipPathUnits="userSpaceOnUse"
       id="clipPath21">
      <path
         d="M 81.250008,115.625 H 1146.8751 V 1621.8751 H 81.250008 Z"
         transform="matrix(0.37112079,0,0,0.37112079,67.181121,105.42942)"
         clip-rule="evenodd"
         id="path21" />
    </clipPath>
    <clipPath
       clipPathUnits="userSpaceOnUse"
       id="clipPath23">
      <path
         d="M 81.250008,115.625 H 1146.8751 V 1621.8751 H 81.250008 Z"
         transform="matrix(0.37112079,0,0,0.37112079,67.181121,105.42942)"
         clip-rule="evenodd"
         id="path23" />
    </clipPath>
    <clipPath
       clipPathUnits="userSpaceOnUse"
       id="clipPath24">
      <path
         d="M 81.250008,115.625 H 1146.8751 V 1621.8751 H 81.250008 Z"
         transform="matrix(0.37112079,0,0,0.37112079,-42.615758,-56.070589)"
         clip-rule="evenodd"
         id="path24" />
    </clipPath>
    <clipPath
       clipPathUnits="userSpaceOnUse"
       id="clipPath25">
      <path
         d="M 81.250008,115.625 H 1146.8751 V 1621.8751 H 81.250008 Z"
         transform="matrix(0.37112079,0,0,0.37112079,-54.287634,-71.070589)"
         clip-rule="evenodd"
         id="path25" />
    </clipPath>
    <clipPath
       clipPathUnits="userSpaceOnUse"
       id="clipPath27">
      <path
         d="M 81.250008,115.625 H 1146.8751 V 1621.8751 H 81.250008 Z"
         transform="matrix(0.37112079,0,0,0.37112079,67.181121,105.42942)"
         clip-rule="evenodd"
         id="path27" />
    </clipPath>
    <clipPath
       clipPathUnits="userSpaceOnUse"
       id="clipPath29">
      <path
         d="M 81.250008,115.625 H 1146.8751 V 1621.8751 H 81.250008 Z"
         transform="matrix(0.37112079,0,0,0.37112079,67.181121,105.42942)"
         clip-rule="evenodd"
         id="path29" />
    </clipPath>
    <clipPath
       clipPathUnits="userSpaceOnUse"
       id="clipPath30">
      <path
         d="M 81.250008,115.625 H 1146.8751 V 1621.8751 H 81.250008 Z"
         transform="matrix(0.37112079,0,0,0.37112079,-303.61577,-56.070589)"
         clip-rule="evenodd"
         id="path30" />
    </clipPath>
    <clipPath
       clipPathUnits="userSpaceOnUse"
       id="clipPath31">
      <path
         d="M 81.250008,115.625 H 1146.8751 V 1621.8751 H 81.250008 Z"
         transform="matrix(0.37112079,0,0,0.37112079,-311.28763,-71.070589)"
         clip-rule="evenodd"
         id="path31" />
    </clipPath>
    <clipPath
       clipPathUnits="userSpaceOnUse"
       id="clipPath33">
      <path
         d="M 81.250008,115.625 H 1146.8751 V 1621.8751 H 81.250008 Z"
         transform="matrix(0.37112079,0,0,0.37112079,67.181121,105.42942)"
         clip-rule="evenodd"
         id="path33" />
    </clipPath>
    <clipPath
       clipPathUnits="userSpaceOnUse"
       id="clipPath35">
      <path
         d="M 81.250008,115.625 H 1146.8751 V 1621.8751 H 81.250008 Z"
         transform="matrix(0.37112079,0,0,0.37112079,67.181121,105.42942)"
         clip-rule="evenodd"
         id="path35" />
    </clipPath>
    <clipPath
       clipPathUnits="userSpaceOnUse"
       id="clipPath37">
      <path
         d="M 81.250008,115.625 H 1146.8751 V 1621.8751 H 81.250008 Z"
         transform="matrix(0.37112079,0,0,0.37112079,67.181121,105.42942)"
         clip-rule="evenodd"
         id="path37" />
    </clipPath>
    <clipPath
       clipPathUnits="userSpaceOnUse"
       id="clipPath38">
      <path
         d="M 81.250008,115.625 H 1146.8751 V 1621.8751 H 81.250008 Z"
         transform="matrix(0.37112079,0,0,0.37112079,-201.63138,-228.07059)"
         clip-rule="evenodd"
         id="path38" />
    </clipPath>
    <clipPath
       clipPathUnits="userSpaceOnUse"
       id="clipPath40">
      <path
         d="M 81.250008,115.625 H 1146.8751 V 1621.8751 H 81.250008 Z"
         transform="matrix(0.37112079,0,0,0.37112079,67.181121,105.42942)"
         clip-rule="evenodd"
         id="path40" />
    </clipPath>
    <clipPath
       clipPathUnits="userSpaceOnUse"
       id="clipPath42">
      <path
         d="M 81.250008,115.625 H 1146.8751 V 1621.8751 H 81.250008 Z"
         transform="matrix(0.37112079,0,0,0.37112079,67.181121,105.42942)"
         clip-rule="evenodd"
         id="path42" />
    </clipPath>
    <clipPath
       clipPathUnits="userSpaceOnUse"
       id="clipPath44">
      <path
         d="M 81.250008,115.625 H 1146.8751 V 1621.8751 H 81.250008 Z"
         transform="matrix(0.37112079,0,0,0.37112079,67.181121,105.42942)"
         clip-rule="evenodd"
         id="path44" />
    </clipPath>
    <clipPath
       clipPathUnits="userSpaceOnUse"
       id="clipPath45">
      <path
         d="M 81.250008,115.625 H 1146.8751 V 1621.8751 H 81.250008 Z"
         transform="matrix(0.37112079,0,0,0.37112079,-205.63138,-448.07058)"
         clip-rule="evenodd"
         id="path45" />
    </clipPath>
    <clipPath
       clipPathUnits="userSpaceOnUse"
       id="clipPath46">
      <path
         d="M 81.250008,115.625 H 1146.8751 V 1621.8751 H 81.250008 Z"
         transform="matrix(0.37112079,0,0,0.37112079,-168.27202,-581.07059)"
         clip-rule="evenodd"
         id="path46" />
    </clipPath>
    <clipPath
       clipPathUnits="userSpaceOnUse"
       id="clipPath47">
      <path
         d="M 81.250008,115.625 H 1146.8751 V 1621.8751 H 81.250008 Z"
         transform="matrix(0.37112079,0,0,0.37112079,-203.08452,-596.07059)"
         clip-rule="evenodd"
         id="path47" />
    </clipPath>
    <clipPath
       clipPathUnits="userSpaceOnUse"
       id="clipPath49">
      <path
         d="M 81.250008,115.625 H 1146.8751 V 1621.8751 H 81.250008 Z"
         transform="matrix(0.37112079,0,0,0.37112079,67.181121,105.42942)"
         clip-rule="evenodd"
         id="path49" />
    </clipPath>
    <clipPath
       clipPathUnits="userSpaceOnUse"
       id="clipPath51">
      <path
         d="M 81.250008,115.625 H 1146.8751 V 1621.8751 H 81.250008 Z"
         transform="matrix(0.37112079,0,0,0.37112079,67.181121,105.42942)"
         clip-rule="evenodd"
         id="path51" />
    </clipPath>
    <clipPath
       clipPathUnits="userSpaceOnUse"
       id="clipPath53">
      <path
         d="M 81.250008,115.625 H 1146.8751 V 1621.8751 H 81.250008 Z"
         transform="matrix(0.37112079,0,0,0.37112079,67.181121,105.42942)"
         clip-rule="evenodd"
         id="path53" />
    </clipPath>
    <clipPath
       clipPathUnits="userSpaceOnUse"
       id="clipPath54">
      <path
         d="M 81.250008,115.625 H 1146.8751 V 1621.8751 H 81.250008 Z"
         transform="matrix(0.37112079,0,0,0.37112079,-218.64702,-403.07059)"
         clip-rule="evenodd"
         id="path54" />
    </clipPath>
    <clipPath
       clipPathUnits="userSpaceOnUse"
       id="clipPath56">
      <path
         d="M 81.250008,115.625 H 1146.8751 V 1621.8751 H 81.250008 Z"
         transform="matrix(0.37112079,0,0,0.37112079,67.181121,105.42942)"
         clip-rule="evenodd"
         id="path56" />
    </clipPath>
    <clipPath
       clipPathUnits="userSpaceOnUse"
       id="clipPath58">
      <path
         d="M 81.250008,115.625 H 1146.8751 V 1621.8751 H 81.250008 Z"
         transform="matrix(0.37112079,0,0,0.37112079,67.181121,105.42942)"
         clip-rule="evenodd"
         id="path58" />
    </clipPath>
    <clipPath
       clipPathUnits="userSpaceOnUse"
       id="clipPath60">
      <path
         d="M 81.250008,115.625 H 1146.8751 V 1621.8751 H 81.250008 Z"
         transform="matrix(0.37112079,0,0,0.37112079,67.181121,105.42942)"
         clip-rule="evenodd"
         id="path60" />
    </clipPath>
    <clipPath
       clipPathUnits="userSpaceOnUse"
       id="clipPath61">
      <path
         d="M 81.250008,115.625 H 1146.8751 V 1621.8751 H 81.250008 Z"
         transform="matrix(0.37112079,0,0,0.37112079,-218.80326,-315.07059)"
         clip-rule="evenodd"
         id="path61" />
    </clipPath>
    <clipPath
       clipPathUnits="userSpaceOnUse"
       id="clipPath62">
      <path
         d="M 81.250008,115.625 H 1146.8751 V 1621.8751 H 81.250008 Z"
         transform="matrix(0.37112079,0,0,0.37112079,-104.97513,-275.07059)"
         clip-rule="evenodd"
         id="path62" />
    </clipPath>
    <clipPath
       clipPathUnits="userSpaceOnUse"
       id="clipPath64">
      <path
         d="M 81.250008,115.625 H 1146.8751 V 1621.8751 H 81.250008 Z"
         transform="matrix(0.37112079,0,0,0.37112079,67.181121,105.42942)"
         clip-rule="evenodd"
         id="path64" />
    </clipPath>
    <clipPath
       clipPathUnits="userSpaceOnUse"
       id="clipPath66">
      <path
         d="M 81.250008,115.625 H 1146.8751 V 1621.8751 H 81.250008 Z"
         transform="matrix(0.37112079,0,0,0.37112079,67.181121,105.42942)"
         clip-rule="evenodd"
         id="path66" />
    </clipPath>
    <clipPath
       clipPathUnits="userSpaceOnUse"
       id="clipPath68">
      <path
         d="M 81.250008,115.625 H 1146.8751 V 1621.8751 H 81.250008 Z"
         transform="matrix(0.37112079,0,0,0.37112079,67.181121,105.42942)"
         clip-rule="evenodd"
         id="path68" />
    </clipPath>
    <clipPath
       clipPathUnits="userSpaceOnUse"
       id="clipPath69">
      <path
         d="M 81.250008,115.625 H 1146.8751 V 1621.8751 H 81.250008 Z"
         transform="matrix(0.37112079,0,0,0.37112079,-206.97513,-491.07059)"
         clip-rule="evenodd"
         id="path69" />
    </clipPath>
    <clipPath
       clipPathUnits="userSpaceOnUse"
       id="clipPath71">
      <path
         d="M 81.250008,115.625 H 1146.8751 V 1621.8751 H 81.250008 Z"
         transform="matrix(0.37112079,0,0,0.37112079,67.181121,105.42942)"
         clip-rule="evenodd"
         id="path71" />
    </clipPath>
    <clipPath
       clipPathUnits="userSpaceOnUse"
       id="clipPath73">
      <path
         d="M 81.250008,115.625 H 1146.8751 V 1621.8751 H 81.250008 Z"
         transform="matrix(0.37112079,0,0,0.37112079,67.181121,105.42942)"
         clip-rule="evenodd"
         id="path73" />
    </clipPath>
    <clipPath
       clipPathUnits="userSpaceOnUse"
       id="clipPath75">
      <path
         d="M 81.250008,115.625 H 1146.8751 V 1621.8751 H 81.250008 Z"
         transform="matrix(0.37112079,0,0,0.37112079,67.181121,105.42942)"
         clip-rule="evenodd"
         id="path75" />
    </clipPath>
    <clipPath
       clipPathUnits="userSpaceOnUse"
       id="clipPath76">
      <path
         d="M 81.250008,115.625 H 1146.8751 V 1621.8751 H 81.250008 Z"
         transform="matrix(0.37112079,0,0,0.37112079,-205.63138,-533.07059)"
         clip-rule="evenodd"
         id="path76" />
    </clipPath>
    <clipPath
       clipPathUnits="userSpaceOnUse"
       id="clipPath78">
      <path
         d="M 81.250008,115.625 H 1146.8751 V 1621.8751 H 81.250008 Z"
         transform="matrix(0.37112079,0,0,0.37112079,67.181121,105.42942)"
         clip-rule="evenodd"
         id="path78" />
    </clipPath>
    <clipPath
       clipPathUnits="userSpaceOnUse"
       id="clipPath80">
      <path
         d="M 81.250008,115.625 H 1146.8751 V 1621.8751 H 81.250008 Z"
         transform="matrix(0.37112079,0,0,0.37112079,67.181121,105.42942)"
         clip-rule="evenodd"
         id="path80" />
    </clipPath>
    <clipPath
       clipPathUnits="userSpaceOnUse"
       id="clipPath82">
      <path
         d="M 81.250008,115.625 H 1146.8751 V 1621.8751 H 81.250008 Z"
         transform="matrix(0.37112079,0,0,0.37112079,67.181121,105.42942)"
         clip-rule="evenodd"
         id="path82" />
    </clipPath>
    <clipPath
       clipPathUnits="userSpaceOnUse"
       id="clipPath83">
      <path
         d="M 81.250008,115.625 H 1146.8751 V 1621.8751 H 81.250008 Z"
         transform="matrix(0.37112079,0,0,0.37112079,-206.97513,-271.07059)"
         clip-rule="evenodd"
         id="path83" />
    </clipPath>
    <clipPath
       clipPathUnits="userSpaceOnUse"
       id="clipPath85">
      <path
         d="M 81.250008,115.625 H 1146.8751 V 1621.8751 H 81.250008 Z"
         transform="matrix(0.37112079,0,0,0.37112079,67.181121,105.42942)"
         clip-rule="evenodd"
         id="path85" />
    </clipPath>
    <clipPath
       clipPathUnits="userSpaceOnUse"
       id="clipPath87">
      <path
         d="M 81.250008,115.625 H 1146.8751 V 1621.8751 H 81.250008 Z"
         transform="matrix(0.37112079,0,0,0.37112079,67.181121,105.42942)"
         clip-rule="evenodd"
         id="path87" />
    </clipPath>
    <clipPath
       clipPathUnits="userSpaceOnUse"
       id="clipPath89">
      <path
         d="M 81.250008,115.625 H 1146.8751 V 1621.8751 H 81.250008 Z"
         transform="matrix(0.37112079,0,0,0.37112079,67.181121,105.42942)"
         clip-rule="evenodd"
         id="path89" />
    </clipPath>
    <clipPath
       clipPathUnits="userSpaceOnUse"
       id="clipPath90">
      <path
         d="M 81.250008,115.625 H 1146.8751 V 1621.8751 H 81.250008 Z"
         transform="matrix(0.37112079,0,0,0.37112079,-185.63138,-358.07059)"
         clip-rule="evenodd"
         id="path90" />
    </clipPath>
    <clipPath
       clipPathUnits="userSpaceOnUse"
       id="clipPath92">
      <path
         d="M 81.250008,115.625 H 1146.8751 V 1621.8751 H 81.250008 Z"
         transform="matrix(0.37112079,0,0,0.37112079,67.181121,105.42942)"
         clip-rule="evenodd"
         id="path92" />
    </clipPath>
    <clipPath
       clipPathUnits="userSpaceOnUse"
       id="clipPath93">
      <path
         d="M 81.250008,115.625 H 1146.8751 V 1621.8751 H 81.250008 Z"
         transform="matrix(0.37112079,0,0,0.37112079,-332.63138,-228.07059)"
         clip-rule="evenodd"
         id="path93" />
    </clipPath>
    <clipPath
       clipPathUnits="userSpaceOnUse"
       id="clipPath95">
      <path
         d="M 81.250008,115.625 H 1146.8751 V 1621.8751 H 81.250008 Z"
         transform="matrix(0.37112079,0,0,0.37112079,67.181121,105.42942)"
         clip-rule="evenodd"
         id="path95" />
    </clipPath>
    <clipPath
       clipPathUnits="userSpaceOnUse"
       id="clipPath97">
      <path
         d="M 81.250008,115.625 H 1146.8751 V 1621.8751 H 81.250008 Z"
         transform="matrix(0.37112079,0,0,0.37112079,67.181121,105.42942)"
         clip-rule="evenodd"
         id="path97" />
    </clipPath>
  </defs>
  <sodipodi:namedview
     id="namedview1"
     pagecolor="#ffffff"
     bordercolor="#999999"
     borderopacity="1"
     inkscape:showpageshadow="2"
     inkscape:pageopacity="0"
     inkscape:pagecheckerboard="0"
     inkscape:deskcolor="#d1d1d1">
    <inkscape:page
       x="0"
       y="0"
       inkscape:label="5"
       id="page1"
       width="392"
       height="557.44"
       margin="0"
       bleed="0" />
  </sodipodi:namedview>
  <g
     id="g1"
     inkscape:groupmode="layer"
     inkscape:label="5">
    <path
       id="path1"
       d="m 239.5,290 h 222 c 0.93341,3e-5 1.86456,0.0458 2.79349,0.13727 0.92892,0.0915 1.8511,0.22824 2.76654,0.41034 0.91549,0.1821 1.81982,0.40866 2.71304,0.67962 0.89322,0.27097 1.771,0.58503 2.63333,0.9422 0.8624,0.35721 1.70517,0.7558 2.52835,1.19583 0.82322,0.43998 1.62284,0.91926 2.39893,1.43784 0.77612,0.51859 1.52496,1.07398 2.24652,1.66611 0.72153,0.59213 1.41229,1.21823 2.0723,1.87823 0.66,0.66001 1.2861,1.3508 1.87826,2.07236 0.59213,0.72153 1.14749,1.47034 1.66608,2.24643 0.51858,0.77612 0.99786,1.57577 1.4379,2.39896 0.43997,0.82321 0.83856,1.66598 1.19577,2.52832 0.3572,0.86239 0.67129,1.74017 0.94226,2.63339 0.27096,0.89322 0.49746,1.79754 0.67956,2.71301 0.1821,0.9155 0.31891,1.83768 0.41043,2.7666 0.0915,0.92893 0.13727,1.86011 0.13724,2.79349 v 133 c 3e-5,0.93344 -0.0457,1.86459 -0.13724,2.79352 -0.0915,0.92892 -0.22833,1.8511 -0.41046,2.76657 -0.18207,0.91547 -0.4086,1.81982 -0.67956,2.71304 -0.27094,0.89322 -0.58503,1.771 -0.94227,2.63333 -0.35717,0.86237 -0.75576,1.70514 -1.1958,2.52832 -0.43997,0.82322 -0.91928,1.62284 -1.43786,2.39893 -0.51859,0.77609 -1.07395,1.52493 -1.66608,2.24649 -0.59213,0.72153 -1.21823,1.41232 -1.87823,2.07233 -0.66001,0.66 -1.3508,1.2861 -2.07233,1.87826 -0.72153,0.59213 -1.47037,1.14749 -2.24649,1.66605 -0.77609,0.51858 -1.57575,0.99789 -2.39896,1.4379 -0.82315,0.44 -1.66592,0.83859 -2.52832,1.1958 -0.86233,0.3572 -1.74008,0.67129 -2.6333,0.94226 -0.89322,0.27096 -1.79758,0.49746 -2.71307,0.67953 -0.91544,0.1821 -1.83762,0.31891 -2.76654,0.41043 C 463.36456,479.95425 462.43341,480 461.5,480 h -222 c -0.93341,0 -1.86458,-0.0457 -2.79349,-0.13724 -0.92891,-0.0915 -1.85112,-0.22833 -2.7666,-0.41043 -0.91548,-0.18207 -1.81982,-0.40857 -2.71304,-0.67953 -0.89324,-0.27097 -1.77103,-0.58506 -2.63338,-0.94226 -0.86235,-0.35721 -1.70512,-0.7558 -2.52832,-1.19584 -0.8232,-0.43997 -1.62283,-0.91928 -2.39894,-1.43786 -0.77609,-0.51856 -1.52492,-1.07392 -2.24646,-1.66605 -0.72153,-0.59216 -1.41231,-1.21826 -2.07233,-1.87826 -0.66002,-0.66001 -1.2861,-1.3508 -1.87825,-2.07233 -0.59215,-0.72156 -1.1475,-1.4704 -1.6661,-2.24649 -0.51857,-0.77609 -0.99785,-1.57571 -1.43786,-2.39893 -0.44,-0.82318 -0.8386,-1.66595 -1.19581,-2.52832 -0.35719,-0.86233 -0.67127,-1.74014 -0.94222,-2.63336 -0.27096,-0.89322 -0.49749,-1.79754 -0.67961,-2.71304 -0.18208,-0.91544 -0.31888,-1.83762 -0.41035,-2.76654 C 211.04575,453.36459 211,452.43344 211,451.5 v -133 c 0,-0.93338 0.0457,-1.86456 0.13724,-2.79349 0.0915,-0.92892 0.22827,-1.8511 0.41037,-2.7666 0.1821,-0.91547 0.40863,-1.81979 0.67959,-2.71301 0.27095,-0.89322 0.58503,-1.771 0.94222,-2.63339 0.35721,-0.86234 0.75581,-1.70511 1.19581,-2.52832 0.44001,-0.82319 0.91929,-1.62284 1.43786,-2.39896 0.5186,-0.77609 1.07395,-1.5249 1.6661,-2.24643 0.59215,-0.72156 1.21823,-1.41235 1.87825,-2.07236 0.66002,-0.66 1.35082,-1.2861 2.07236,-1.87823 0.72153,-0.59213 1.47034,-1.14752 2.24643,-1.66611 0.77611,-0.51858 1.57574,-0.99786 2.39894,-1.43784 0.8232,-0.44003 1.66597,-0.83862 2.52832,-1.19583 0.86235,-0.35717 1.74014,-0.67123 2.63338,-0.9422 0.89322,-0.27096 1.79756,-0.49752 2.71304,-0.67962 0.91548,-0.1821 1.83769,-0.31888 2.7666,-0.41034 0.92891,-0.0915 1.86008,-0.13724 2.79349,-0.13727 z"
       style="fill:#faedaa;fill-opacity:1;fill-rule:nonzero;stroke:#b46504;stroke-width:1;stroke-linecap:butt;stroke-linejoin:miter;stroke-miterlimit:10;stroke-dasharray:none;stroke-opacity:1"
       transform="matrix(0.86225292,0,0,0.86225292,-57.927118,-90.906822)"
       clip-path="url(#clipPath2)" />
    <path
       id="path3"
       d="m 290,180 v 63.63"
       style="fill:none;stroke:#000000;stroke-width:1;stroke-linecap:butt;stroke-linejoin:miter;stroke-miterlimit:10;stroke-dasharray:none;stroke-opacity:1"
       transform="matrix(0.86225292,0,0,0.86225292,-57.927118,-90.906822)"
       clip-path="url(#clipPath4)" />
    <path
       id="path5"
       d="m 290,248.88 -3.5,-7 3.5,1.75 3.5,-1.75 z"
       style="fill:#000000;fill-opacity:1;fill-rule:nonzero;stroke:#000000;stroke-width:1;stroke-linecap:butt;stroke-linejoin:miter;stroke-miterlimit:10;stroke-dasharray:none;stroke-opacity:1"
       transform="matrix(0.86225292,0,0,0.86225292,-57.927118,-90.906822)"
       clip-path="url(#clipPath6)" />
    <g
       id="g6" />
    <text
       id="text6"
       xml:space="preserve"
       transform="matrix(0.86225292,0,0,0.86225292,149.7007,48.347029)"
       clip-path="url(#clipPath7)"><tspan
         style="font-variant:normal;font-weight:normal;font-size:12px;font-family:Arial;writing-mode:lr-tb;fill:#000000;fill-opacity:1;fill-rule:nonzero;stroke:none"
         x="0 8.0039062 14.003906 17.337891 21.333984 28.007812 34.007812 37.341797 44.015625 50.689453 54.023438 57.357422 64.03125 70.705078 74.039062 80.712891 84.708984 91.382812"
         y="0"
         sodipodi:role="line"
         id="tspan6">Extracted features</tspan></text>
    <g
       id="g7" />
    <text
       id="text7"
       xml:space="preserve"
       transform="matrix(0.86225292,0,0,0.86225292,152.86678,61.280823)"
       clip-path="url(#clipPath8)"><tspan
         style="font-variant:normal;font-weight:normal;font-size:12px;font-family:Arial;writing-mode:lr-tb;fill:#000000;fill-opacity:1;fill-rule:nonzero;stroke:none"
         x="0 3.9960938 12.662109 19.335938 26.009766 29.34375 36.017578 40.013672 43.347656 52.013672 58.6875 68.683594 75.357422 79.353516 86.027344"
         y="0"
         sodipodi:role="line"
         id="tspan7">(Center Camera)</tspan></text>
    <path
       id="path9"
       d="m 290,280 v 33.63"
       style="fill:none;stroke:#000000;stroke-width:1;stroke-linecap:butt;stroke-linejoin:miter;stroke-miterlimit:10;stroke-dasharray:none;stroke-opacity:1"
       transform="matrix(0.86225292,0,0,0.86225292,-57.927118,-90.906822)"
       clip-path="url(#clipPath10)" />
    <path
       id="path11"
       d="m 290,318.88 -3.5,-7 3.5,1.75 3.5,-1.75 z"
       style="fill:#000000;fill-opacity:1;fill-rule:nonzero;stroke:#000000;stroke-width:1;stroke-linecap:butt;stroke-linejoin:miter;stroke-miterlimit:10;stroke-dasharray:none;stroke-opacity:1"
       transform="matrix(0.86225292,0,0,0.86225292,-57.927118,-90.906822)"
       clip-path="url(#clipPath12)" />
    <path
       id="path13"
       d="m 290,280 v 20 h 130.5 v 13.63"
       style="fill:none;stroke:#000000;stroke-width:1;stroke-linecap:butt;stroke-linejoin:miter;stroke-miterlimit:10;stroke-dasharray:none;stroke-opacity:1"
       transform="matrix(0.86225292,0,0,0.86225292,-57.927118,-90.906822)"
       clip-path="url(#clipPath14)" />
    <path
       id="path15"
       d="m 420.5,318.88 -3.5,-7 3.5,1.75 3.5,-1.75 z"
       style="fill:#000000;fill-opacity:1;fill-rule:nonzero;stroke:#000000;stroke-width:1;stroke-linecap:butt;stroke-linejoin:miter;stroke-miterlimit:10;stroke-dasharray:none;stroke-opacity:1"
       transform="matrix(0.86225292,0,0,0.86225292,-57.927118,-90.906822)"
       clip-path="url(#clipPath16)" />
    <path
       id="path17"
       d="m 305,265 c 0,0.98492 -0.0961,1.96039 -0.28824,2.92636 -0.19214,0.96597 -0.47668,1.90393 -0.85361,2.81387 -0.37689,0.90995 -0.83892,1.77436 -1.38613,2.5933 -0.54718,0.81894 -1.16898,1.57663 -1.86542,2.27307 -0.69644,0.69641 -1.45413,1.3182 -2.27307,1.86542 -0.81894,0.54718 -1.68335,1.00921 -2.5933,1.38613 -0.90994,0.37693 -1.84793,0.66144 -2.8139,0.85361 C 291.96036,279.90393 290.98489,280 290,280 c -0.98492,0 -1.96039,-0.0961 -2.92636,-0.28824 -0.966,-0.19217 -1.90399,-0.47668 -2.81394,-0.85361 -0.90994,-0.37692 -1.77438,-0.83895 -2.59332,-1.38613 -0.81888,-0.54722 -1.57657,-1.16901 -2.27301,-1.86542 -0.69644,-0.69644 -1.31827,-1.45413 -1.86545,-2.27307 -0.54721,-0.81894 -1.00924,-1.68335 -1.38614,-2.5933 -0.37692,-0.90994 -0.66143,-1.8479 -0.85357,-2.81387 C 275.09607,266.96039 275,265.98492 275,265 c 0,-0.98495 0.0961,-1.96042 0.28821,-2.92639 0.19214,-0.96597 0.47665,-1.90393 0.85357,-2.81387 0.3769,-0.90995 0.83893,-1.77439 1.38614,-2.59333 0.54718,-0.81892 1.16901,-1.5766 1.86545,-2.27304 0.69644,-0.69644 1.45413,-1.31825 2.27301,-1.86545 0.81894,-0.54718 1.68338,-1.00923 2.59332,-1.38615 0.90995,-0.37689 1.84794,-0.66141 2.81394,-0.85356 0.96597,-0.19213 1.94144,-0.28819 2.92636,-0.28821 0.98489,2e-5 1.96036,0.0961 2.92633,0.28822 0.96597,0.19216 1.90396,0.47667 2.8139,0.85356 0.90995,0.37691 1.77436,0.83896 2.5933,1.38614 0.81894,0.5472 1.57663,1.16901 2.27307,1.86545 0.69644,0.69644 1.31824,1.45412 1.86542,2.27304 0.54721,0.81894 1.00924,1.68335 1.38613,2.59329 0.37693,0.90995 0.66147,1.84794 0.85361,2.81391 C 304.90393,263.03958 305,264.01505 305,265 Z"
       style="fill:#ffffff;fill-opacity:1;fill-rule:nonzero;stroke:#000000;stroke-width:1;stroke-linecap:butt;stroke-linejoin:miter;stroke-miterlimit:10;stroke-dasharray:none;stroke-opacity:1"
       transform="matrix(0.86225292,0,0,0.86225292,-57.927118,-90.906822)"
       clip-path="url(#clipPath18)" />
    <g
       id="g18" />
    <text
       id="text18"
       xml:space="preserve"
       transform="matrix(0.86225292,0,0,0.86225292,187.9497,140.60809)"
       clip-path="url(#clipPath19)"><tspan
         style="font-variant:normal;font-weight:normal;font-size:12px;font-family:Arial;writing-mode:lr-tb;fill:#000000;fill-opacity:1;fill-rule:nonzero;stroke:none"
         x="0"
         y="0"
         id="tspan18">C</tspan></text>
    <path
       id="path20"
       d="m 159,180 v 35 h 131 v 28.63"
       style="fill:none;stroke:#000000;stroke-width:1;stroke-linecap:butt;stroke-linejoin:miter;stroke-miterlimit:10;stroke-dasharray:none;stroke-opacity:1"
       transform="matrix(0.86225292,0,0,0.86225292,-57.927118,-90.906822)"
       clip-path="url(#clipPath21)" />
    <path
       id="path22"
       d="m 290,248.88 -3.5,-7 3.5,1.75 3.5,-1.75 z"
       style="fill:#000000;fill-opacity:1;fill-rule:nonzero;stroke:#000000;stroke-width:1;stroke-linecap:butt;stroke-linejoin:miter;stroke-miterlimit:10;stroke-dasharray:none;stroke-opacity:1"
       transform="matrix(0.86225292,0,0,0.86225292,-57.927118,-90.906822)"
       clip-path="url(#clipPath23)" />
    <g
       id="g23" />
    <text
       id="text23"
       xml:space="preserve"
       transform="matrix(0.86225292,0,0,0.86225292,36.745562,48.347029)"
       clip-path="url(#clipPath24)"><tspan
         style="font-variant:normal;font-weight:normal;font-size:12px;font-family:Arial;writing-mode:lr-tb;fill:#000000;fill-opacity:1;fill-rule:nonzero;stroke:none"
         x="0 8.0039062 14.003906 17.337891 21.333984 28.007812 34.007812 37.341797 44.015625 50.689453 54.023438 57.357422 64.03125 70.705078 74.039062 80.712891 84.708984 91.382812"
         y="0"
         sodipodi:role="line"
         id="tspan23">Extracted features</tspan></text>
    <g
       id="g24" />
    <text
       id="text24"
       xml:space="preserve"
       transform="matrix(0.86225292,0,0,0.86225292,46.809671,61.280823)"
       clip-path="url(#clipPath25)"><tspan
         style="font-variant:normal;font-weight:normal;font-size:12px;font-family:Arial;writing-mode:lr-tb;fill:#000000;fill-opacity:1;fill-rule:nonzero;stroke:none"
         x="0 3.9960938 10.669922 17.34375 20.677734 24.011719 27.345703 36.011719 42.685547 52.681641 59.355469 63.351562 70.025391"
         y="0"
         sodipodi:role="line"
         id="tspan24">(Left Camera)</tspan></text>
    <path
       id="path26"
       d="m 420,180 v 35 H 290 v 28.63"
       style="fill:none;stroke:#000000;stroke-width:1;stroke-linecap:butt;stroke-linejoin:miter;stroke-miterlimit:10;stroke-dasharray:none;stroke-opacity:1"
       transform="matrix(0.86225292,0,0,0.86225292,-57.927118,-90.906822)"
       clip-path="url(#clipPath27)" />
    <path
       id="path28"
       d="m 290,248.88 -3.5,-7 3.5,1.75 3.5,-1.75 z"
       style="fill:#000000;fill-opacity:1;fill-rule:nonzero;stroke:#000000;stroke-width:1;stroke-linecap:butt;stroke-linejoin:miter;stroke-miterlimit:10;stroke-dasharray:none;stroke-opacity:1"
       transform="matrix(0.86225292,0,0,0.86225292,-57.927118,-90.906822)"
       clip-path="url(#clipPath29)" />
    <g
       id="g29" />
    <text
       id="text29"
       xml:space="preserve"
       transform="matrix(0.86225292,0,0,0.86225292,261.79358,48.347029)"
       clip-path="url(#clipPath30)"><tspan
         style="font-variant:normal;font-weight:normal;font-size:12px;font-family:Arial;writing-mode:lr-tb;fill:#000000;fill-opacity:1;fill-rule:nonzero;stroke:none"
         x="0 8.0039062 14.003906 17.337891 21.333984 28.007812 34.007812 37.341797 44.015625 50.689453 54.023438 57.357422 64.03125 70.705078 74.039062 80.712891 84.708984 91.382812"
         y="0"
         sodipodi:role="line"
         id="tspan29">Extracted features</tspan></text>
    <g
       id="g30" />
    <text
       id="text30"
       xml:space="preserve"
       transform="matrix(0.86225292,0,0,0.86225292,268.40867,61.280823)"
       clip-path="url(#clipPath31)"><tspan
         style="font-variant:normal;font-weight:normal;font-size:12px;font-family:Arial;writing-mode:lr-tb;fill:#000000;fill-opacity:1;fill-rule:nonzero;stroke:none"
         x="0 3.9960938 12.662109 15.328125 22.001953 28.675781 32.009766 35.34375 44.009766 50.683594 60.679688 67.353516 71.349609 78.023438"
         y="0"
         sodipodi:role="line"
         id="tspan30">(Right Camera)</tspan></text>
    <path
       id="path32"
       d="m 290,340 v 20 -17 13.63"
       style="fill:none;stroke:#000000;stroke-width:1;stroke-linecap:butt;stroke-linejoin:miter;stroke-miterlimit:10;stroke-dasharray:none;stroke-opacity:1"
       transform="matrix(0.86225292,0,0,0.86225292,-57.927118,-90.906822)"
       clip-path="url(#clipPath33)" />
    <path
       id="path34"
       d="m 290,361.88 -3.5,-7 3.5,1.75 3.5,-1.75 z"
       style="fill:#000000;fill-opacity:1;fill-rule:nonzero;stroke:#000000;stroke-width:1;stroke-linecap:butt;stroke-linejoin:miter;stroke-miterlimit:10;stroke-dasharray:none;stroke-opacity:1"
       transform="matrix(0.86225292,0,0,0.86225292,-57.927118,-90.906822)"
       clip-path="url(#clipPath35)" />
    <path
       id="path36"
       d="m 233,320 h 114 c 0.3978,0 0.78049,0.0761 1.14801,0.22833 0.36752,0.15225 0.69196,0.36902 0.9733,0.65033 0.28128,0.28128 0.49804,0.60572 0.65027,0.97324 0.15225,0.36755 0.22839,0.75024 0.22842,1.1481 v 14 c -3e-5,0.3978 -0.0762,0.78049 -0.22842,1.14801 -0.15223,0.36755 -0.36899,0.69199 -0.65027,0.9733 -0.28134,0.28128 -0.60578,0.49804 -0.9733,0.6503 C 347.78049,339.92386 347.3978,339.99997 347,340 H 233 c -0.39784,-3e-5 -0.78053,-0.0761 -1.14807,-0.22839 -0.36755,-0.15226 -0.69197,-0.36902 -0.97327,-0.6503 -0.28132,-0.28131 -0.49809,-0.60575 -0.65033,-0.9733 C 230.0761,337.78049 229.99998,337.3978 230,337 v -14 c -2e-5,-0.39786 0.0761,-0.78055 0.22833,-1.1481 0.15224,-0.36752 0.36901,-0.69196 0.65033,-0.97324 0.2813,-0.28131 0.60572,-0.49808 0.97327,-0.65033 C 232.21947,320.07611 232.60216,320 233,320 Z"
       style="fill:#fad7ac;fill-opacity:1;fill-rule:nonzero;stroke:#b46504;stroke-width:1;stroke-linecap:butt;stroke-linejoin:miter;stroke-miterlimit:10;stroke-dasharray:none;stroke-opacity:1"
       transform="matrix(0.86225292,0,0,0.86225292,-57.927118,-90.906822)"
       clip-path="url(#clipPath37)" />
    <g
       id="g37" />
    <text
       id="text37"
       xml:space="preserve"
       transform="matrix(0.86225292,0,0,0.86225292,173.85725,196.65453)"
       clip-path="url(#clipPath38)"><tspan
         style="font-variant:normal;font-weight:normal;font-size:12px;font-family:Arial;writing-mode:lr-tb;fill:#000000;fill-opacity:1;fill-rule:nonzero;stroke:none"
         x="0 8.6660156 15.339844 22.013672 28.013672 34.6875"
         y="0"
         sodipodi:role="line"
         id="tspan37">Conv2d</tspan></text>
    <path
       id="path39"
       d="m 290,560 v 20 -17 13.63"
       style="fill:none;stroke:#000000;stroke-width:1;stroke-linecap:butt;stroke-linejoin:miter;stroke-miterlimit:10;stroke-dasharray:none;stroke-opacity:1"
       transform="matrix(0.86225292,0,0,0.86225292,-57.927118,-90.906822)"
       clip-path="url(#clipPath40)" />
    <path
       id="path41"
       d="m 290,581.88 -3.5,-7 3.5,1.75 3.5,-1.75 z"
       style="fill:#000000;fill-opacity:1;fill-rule:nonzero;stroke:#000000;stroke-width:1;stroke-linecap:butt;stroke-linejoin:miter;stroke-miterlimit:10;stroke-dasharray:none;stroke-opacity:1"
       transform="matrix(0.86225292,0,0,0.86225292,-57.927118,-90.906822)"
       clip-path="url(#clipPath42)" />
    <path
       id="path43"
       d="m 233,540 h 114 c 0.3978,0 0.78049,0.0761 1.14801,0.22827 0.36752,0.15228 0.69196,0.36908 0.9733,0.65039 0.28128,0.28131 0.49804,0.60572 0.65027,0.97327 0.15225,0.36749 0.22839,0.75018 0.22842,1.14807 v 14 c -3e-5,0.39783 -0.0762,0.78052 -0.22842,1.14801 -0.15223,0.36749 -0.36899,0.69196 -0.65027,0.97327 -0.28134,0.28131 -0.60578,0.49804 -0.9733,0.65027 C 347.78049,559.92383 347.3978,559.99994 347,560 H 233 c -0.39784,-6e-5 -0.78053,-0.0762 -1.14807,-0.22845 -0.36755,-0.15223 -0.69197,-0.36896 -0.97327,-0.65027 -0.28132,-0.28131 -0.49809,-0.60578 -0.65033,-0.97327 C 230.0761,557.78052 229.99998,557.39783 230,557 v -14 c -2e-5,-0.39789 0.0761,-0.78058 0.22833,-1.14807 0.15224,-0.36755 0.36901,-0.69196 0.65033,-0.97327 0.2813,-0.28131 0.60572,-0.49811 0.97327,-0.65039 C 232.21947,540.07611 232.60216,540 233,540 Z"
       style="fill:#d0cee2;fill-opacity:1;fill-rule:nonzero;stroke:#56517e;stroke-width:1;stroke-linecap:butt;stroke-linejoin:miter;stroke-miterlimit:10;stroke-dasharray:none;stroke-opacity:1"
       transform="matrix(0.86225292,0,0,0.86225292,-57.927118,-90.906822)"
       clip-path="url(#clipPath44)" />
    <g
       id="g44" />
    <text
       id="text44"
       xml:space="preserve"
       transform="matrix(0.86225292,0,0,0.86225292,177.30626,386.35017)"
       clip-path="url(#clipPath45)"><tspan
         style="font-variant:normal;font-weight:normal;font-size:12px;font-family:Arial;writing-mode:lr-tb;fill:#000000;fill-opacity:1;fill-rule:nonzero;stroke:none"
         x="0 6.6738281 9.3398438 16.013672 22.6875 29.361328"
         y="0"
         sodipodi:role="line"
         id="tspan44">Linear</tspan></text>
    <g
       id="g45" />
    <text
       id="text45"
       xml:space="preserve"
       transform="matrix(0.86225292,0,0,0.86225292,145.09304,501.02981)"
       clip-path="url(#clipPath46)"><tspan
         style="font-variant:normal;font-weight:normal;font-size:12px;font-family:Arial;writing-mode:lr-tb;fill:#000000;fill-opacity:1;fill-rule:nonzero;stroke:none"
         x="0 6.6738281 15.339844 18.673828 24.673828 31.347656 37.347656 44.021484 50.695312 53.361328 60.035156 63.369141 66.703125 73.376953 80.050781 86.050781 88.716797 92.050781 94.716797 101.39062"
         y="0"
         sodipodi:role="line"
         id="tspan45">3D keypoint position</tspan></text>
    <g
       id="g46" />
    <text
       id="text46"
       xml:space="preserve"
       transform="matrix(0.86225292,0,0,0.86225292,175.11022,513.96361)"
       clip-path="url(#clipPath47)"><tspan
         style="font-variant:normal;font-weight:normal;font-size:12px;font-family:Arial;writing-mode:lr-tb;fill:#000000;fill-opacity:1;fill-rule:nonzero;stroke:none"
         x="0 3.9960938 9.9960938 13.330078 16.664062 21.773438 25.107422 28.441406 34.441406"
         y="0"
         sodipodi:role="line"
         id="tspan46">(x, y, z)</tspan></text>
    <path
       id="path48"
       d="m 290,520 v 20 -20 13.63"
       style="fill:none;stroke:#000000;stroke-width:1;stroke-linecap:butt;stroke-linejoin:miter;stroke-miterlimit:10;stroke-dasharray:none;stroke-opacity:1"
       transform="matrix(0.86225292,0,0,0.86225292,-57.927118,-90.906822)"
       clip-path="url(#clipPath49)" />
    <path
       id="path50"
       d="m 290,538.88 -3.5,-7 3.5,1.75 3.5,-1.75 z"
       style="fill:#000000;fill-opacity:1;fill-rule:nonzero;stroke:#000000;stroke-width:1;stroke-linecap:butt;stroke-linejoin:miter;stroke-miterlimit:10;stroke-dasharray:none;stroke-opacity:1"
       transform="matrix(0.86225292,0,0,0.86225292,-57.927118,-90.906822)"
       clip-path="url(#clipPath51)" />
    <path
       id="path52"
       d="m 305,505 c 0,0.98489 -0.0961,1.96036 -0.28824,2.92633 -0.19214,0.96597 -0.47668,1.90393 -0.85361,2.81387 -0.37689,0.90995 -0.83892,1.77439 -1.38613,2.5933 -0.54718,0.8189 -1.16898,1.5766 -1.86542,2.27307 -0.69644,0.69641 -1.45413,1.31823 -2.27307,1.86548 -0.81894,0.54718 -1.68335,1.00921 -2.5933,1.3861 -0.90994,0.3769 -1.84793,0.66144 -2.8139,0.85358 -0.96597,0.19214 -1.94144,0.28821 -2.92633,0.28827 -0.98492,-6e-5 -1.96039,-0.0961 -2.92636,-0.28827 -0.966,-0.19214 -1.90399,-0.47668 -2.81394,-0.85358 -0.90994,-0.37689 -1.77438,-0.83892 -2.59332,-1.3861 -0.81888,-0.54725 -1.57657,-1.16907 -2.27301,-1.86548 -0.69644,-0.69647 -1.31827,-1.45417 -1.86545,-2.27307 -0.54721,-0.81891 -1.00924,-1.68335 -1.38614,-2.5933 -0.37692,-0.90994 -0.66143,-1.8479 -0.85357,-2.81387 C 275.09607,506.96036 275,505.98489 275,505 c 0,-0.98495 0.0961,-1.96042 0.28821,-2.92645 0.19214,-0.96601 0.47665,-1.90396 0.85357,-2.81391 0.3769,-0.90994 0.83893,-1.77438 1.38614,-2.59329 0.54718,-0.81894 1.16901,-1.5766 1.86545,-2.27301 0.69644,-0.69644 1.45413,-1.31824 2.27301,-1.86545 0.81894,-0.54718 1.68338,-1.00921 2.59332,-1.38614 0.90995,-0.37689 1.84794,-0.6614 2.81394,-0.85354 0.96597,-0.19211 1.94144,-0.28818 2.92636,-0.28821 0.98489,3e-5 1.96036,0.0961 2.92633,0.28821 0.96597,0.19214 1.90396,0.47665 2.8139,0.85354 0.90995,0.37693 1.77436,0.83896 2.5933,1.38614 0.81894,0.54721 1.57663,1.16901 2.27307,1.86545 0.69644,0.69641 1.31824,1.45407 1.86542,2.27301 0.54721,0.81894 1.00924,1.68338 1.38613,2.59332 0.37693,0.90995 0.66147,1.8479 0.85361,2.81391 C 304.90393,503.03958 305,504.01505 305,505 Z"
       style="fill:#ffffff;fill-opacity:1;fill-rule:nonzero;stroke:#000000;stroke-width:1;stroke-linecap:butt;stroke-linejoin:miter;stroke-miterlimit:10;stroke-dasharray:none;stroke-opacity:1"
       transform="matrix(0.86225292,0,0,0.86225292,-57.927118,-90.906822)"
       clip-path="url(#clipPath53)" />
    <g
       id="g53" />
    <text
       id="text53"
       xml:space="preserve"
       transform="matrix(0.86225292,0,0,0.86225292,188.52903,347.54879)"
       clip-path="url(#clipPath54)"><tspan
         style="font-variant:normal;font-weight:normal;font-size:12px;font-family:Arial;writing-mode:lr-tb;fill:#000000;fill-opacity:1;fill-rule:nonzero;stroke:none"
         x="0"
         y="0"
         id="tspan53">F</tspan></text>
    <path
       id="path55"
       d="m 290,432 v 20 -22 13.63"
       style="fill:none;stroke:#000000;stroke-width:1;stroke-linecap:butt;stroke-linejoin:miter;stroke-miterlimit:10;stroke-dasharray:none;stroke-opacity:1"
       transform="matrix(0.86225292,0,0,0.86225292,-57.927118,-90.906822)"
       clip-path="url(#clipPath56)" />
    <path
       id="path57"
       d="m 290,448.88 -3.5,-7 3.5,1.75 3.5,-1.75 z"
       style="fill:#000000;fill-opacity:1;fill-rule:nonzero;stroke:#000000;stroke-width:1;stroke-linecap:butt;stroke-linejoin:miter;stroke-miterlimit:10;stroke-dasharray:none;stroke-opacity:1"
       transform="matrix(0.86225292,0,0,0.86225292,-57.927118,-90.906822)"
       clip-path="url(#clipPath58)" />
    <path
       id="path59"
       d="m 305,417 c 0,0.98489 -0.0961,1.96036 -0.28824,2.92633 -0.19214,0.96597 -0.47668,1.90393 -0.85361,2.81387 -0.37689,0.90995 -0.83892,1.77436 -1.38613,2.5933 -0.54718,0.8189 -1.16898,1.5766 -1.86542,2.27307 -0.69644,0.69644 -1.45413,1.31823 -2.27307,1.86541 -0.81894,0.54719 -1.68335,1.00922 -2.5933,1.38614 -0.90994,0.37693 -1.84793,0.66144 -2.8139,0.85361 -0.96597,0.19217 -1.94144,0.28824 -2.92633,0.28827 -0.98492,-3e-5 -1.96039,-0.0961 -2.92636,-0.28824 -0.966,-0.19217 -1.90399,-0.47671 -2.81394,-0.85364 -0.90994,-0.37692 -1.77438,-0.83895 -2.59332,-1.38614 -0.81888,-0.54718 -1.57657,-1.16897 -2.27301,-1.86541 -0.69644,-0.69647 -1.31827,-1.45417 -1.86545,-2.27304 -0.54721,-0.81894 -1.00924,-1.68338 -1.38614,-2.59333 -0.37692,-0.90994 -0.66143,-1.8479 -0.85357,-2.8139 C 275.09607,418.96033 275,417.98489 275,417 c 0,-0.98489 0.0961,-1.96036 0.28821,-2.92633 0.19214,-0.96597 0.47665,-1.90396 0.85357,-2.8139 0.3769,-0.90995 0.83893,-1.77439 1.38614,-2.5933 0.54718,-0.81894 1.16901,-1.57663 1.86545,-2.27307 0.69644,-0.69644 1.45413,-1.31827 2.27301,-1.86548 0.81894,-0.54721 1.68338,-1.00924 2.59332,-1.38614 0.90995,-0.37692 1.84794,-0.66143 2.81394,-0.85357 C 288.03961,402.09607 289.01508,402 290,402 c 0.98489,0 1.96036,0.0961 2.92633,0.28821 0.96597,0.19214 1.90396,0.47665 2.8139,0.85357 0.90995,0.3769 1.77436,0.83896 2.5933,1.38617 0.81894,0.54718 1.57663,1.16901 2.27307,1.86545 0.69644,0.69644 1.31824,1.4541 1.86542,2.27304 0.54721,0.81891 1.00924,1.68335 1.38613,2.5933 0.37693,0.90994 0.66147,1.84793 0.85361,2.8139 C 304.90393,415.03964 305,416.01511 305,417 Z"
       style="fill:#ffffff;fill-opacity:1;fill-rule:nonzero;stroke:#000000;stroke-width:1;stroke-linecap:butt;stroke-linejoin:miter;stroke-miterlimit:10;stroke-dasharray:none;stroke-opacity:1"
       transform="matrix(0.86225292,0,0,0.86225292,-57.927118,-90.906822)"
       clip-path="url(#clipPath60)" />
    <g
       id="g60" />
    <text
       id="text60"
       xml:space="preserve"
       transform="matrix(0.86225292,0,0,0.86225292,188.66375,271.67054)"
       clip-path="url(#clipPath61)"><tspan
         style="font-variant:normal;font-weight:normal;font-size:12px;font-family:Arial;writing-mode:lr-tb;fill:#000000;fill-opacity:1;fill-rule:nonzero;stroke:none"
         x="0"
         y="0"
         id="tspan60">+</tspan></text>
    <g
       id="g61" />
    <text
       id="text61"
       xml:space="preserve"
       transform="matrix(0.86225292,0,0,0.86225292,90.515116,237.18042)"
       clip-path="url(#clipPath62)"><tspan
         style="font-variant:normal;font-weight:normal;font-size:12px;font-family:Arial;writing-mode:lr-tb;fill:#000000;fill-opacity:1;fill-rule:nonzero;stroke:none"
         x="0 8.6660156"
         y="0"
         sodipodi:role="line"
         id="tspan61">Nx</tspan></text>
    <path
       id="path63"
       d="m 290,603 v 20 -18 13.63"
       style="fill:none;stroke:#000000;stroke-width:1;stroke-linecap:butt;stroke-linejoin:miter;stroke-miterlimit:10;stroke-dasharray:none;stroke-opacity:1"
       transform="matrix(0.86225292,0,0,0.86225292,-57.927118,-90.906822)"
       clip-path="url(#clipPath64)" />
    <path
       id="path65"
       d="m 290,623.88 -3.5,-7 3.5,1.75 3.5,-1.75 z"
       style="fill:#000000;fill-opacity:1;fill-rule:nonzero;stroke:#000000;stroke-width:1;stroke-linecap:butt;stroke-linejoin:miter;stroke-miterlimit:10;stroke-dasharray:none;stroke-opacity:1"
       transform="matrix(0.86225292,0,0,0.86225292,-57.927118,-90.906822)"
       clip-path="url(#clipPath66)" />
    <path
       id="path67"
       d="m 233,583 h 114 c 0.3978,0 0.78049,0.0761 1.14801,0.22827 0.36752,0.15228 0.69196,0.36908 0.9733,0.65039 0.28128,0.28131 0.49804,0.60572 0.65027,0.97321 0.15225,0.36755 0.22839,0.75024 0.22842,1.14813 v 14 c -3e-5,0.39783 -0.0762,0.78046 -0.22842,1.14795 -0.15223,0.36755 -0.36899,0.69202 -0.65027,0.97333 -0.28134,0.28125 -0.60578,0.49798 -0.9733,0.65027 C 347.78049,602.92383 347.3978,602.99994 347,603 H 233 c -0.39784,-6e-5 -0.78053,-0.0762 -1.14807,-0.22845 -0.36755,-0.15229 -0.69197,-0.36902 -0.97327,-0.65027 -0.28132,-0.28131 -0.49809,-0.60578 -0.65033,-0.97333 C 230.0761,600.78046 229.99998,600.39783 230,600 v -14 c -2e-5,-0.39789 0.0761,-0.78058 0.22833,-1.14813 0.15224,-0.36749 0.36901,-0.6919 0.65033,-0.97321 0.2813,-0.28131 0.60572,-0.49811 0.97327,-0.65039 C 232.21947,583.07611 232.60216,583 233,583 Z"
       style="fill:#b1ddf0;fill-opacity:1;fill-rule:nonzero;stroke:#10739e;stroke-width:1;stroke-linecap:butt;stroke-linejoin:miter;stroke-miterlimit:10;stroke-dasharray:none;stroke-opacity:1"
       transform="matrix(0.86225292,0,0,0.86225292,-57.927118,-90.906822)"
       clip-path="url(#clipPath68)" />
    <g
       id="g68" />
    <text
       id="text68"
       xml:space="preserve"
       transform="matrix(0.86225292,0,0,0.86225292,178.46491,423.42705)"
       clip-path="url(#clipPath69)"><tspan
         style="font-variant:normal;font-weight:normal;font-size:12px;font-family:Arial;writing-mode:lr-tb;fill:#000000;fill-opacity:1;fill-rule:nonzero;stroke:none"
         x="0 8.6660156 15.339844 22.013672"
         y="0"
         sodipodi:role="line"
         id="tspan68">ReLU</tspan></text>
    <path
       id="path70"
       d="m 290,645 v 20 -10 13.63"
       style="fill:none;stroke:#000000;stroke-width:1;stroke-linecap:butt;stroke-linejoin:miter;stroke-miterlimit:10;stroke-dasharray:none;stroke-opacity:1"
       transform="matrix(0.86225292,0,0,0.86225292,-57.927118,-90.906822)"
       clip-path="url(#clipPath71)" />
    <path
       id="path72"
       d="m 290,673.88 -3.5,-7 3.5,1.75 3.5,-1.75 z"
       style="fill:#000000;fill-opacity:1;fill-rule:nonzero;stroke:#000000;stroke-width:1;stroke-linecap:butt;stroke-linejoin:miter;stroke-miterlimit:10;stroke-dasharray:none;stroke-opacity:1"
       transform="matrix(0.86225292,0,0,0.86225292,-57.927118,-90.906822)"
       clip-path="url(#clipPath73)" />
    <path
       id="path74"
       d="m 233,625 h 114 c 0.3978,0 0.78049,0.0761 1.14801,0.22827 0.36752,0.15228 0.69196,0.36908 0.9733,0.65039 0.28128,0.28131 0.49804,0.60572 0.65027,0.97321 0.15225,0.36761 0.22839,0.7503 0.22842,1.14813 v 14 c -3e-5,0.39777 -0.0762,0.78046 -0.22842,1.14801 -0.15223,0.36749 -0.36899,0.69189 -0.65027,0.97327 -0.28134,0.28131 -0.60578,0.49804 -0.9733,0.65027 C 347.78049,644.92383 347.3978,644.99994 347,645 H 233 c -0.39784,-6e-5 -0.78053,-0.0762 -1.14807,-0.22845 -0.36755,-0.15223 -0.69197,-0.36896 -0.97327,-0.65027 -0.28132,-0.28138 -0.49809,-0.60578 -0.65033,-0.97327 C 230.0761,642.78046 229.99998,642.39777 230,642 v -14 c -2e-5,-0.39783 0.0761,-0.78052 0.22833,-1.14813 0.15224,-0.36749 0.36901,-0.6919 0.65033,-0.97321 0.2813,-0.28131 0.60572,-0.49811 0.97327,-0.65039 C 232.21947,625.07611 232.60216,625 233,625 Z"
       style="fill:#d0cee2;fill-opacity:1;fill-rule:nonzero;stroke:#56517e;stroke-width:1;stroke-linecap:butt;stroke-linejoin:miter;stroke-miterlimit:10;stroke-dasharray:none;stroke-opacity:1"
       transform="matrix(0.86225292,0,0,0.86225292,-57.927118,-90.906822)"
       clip-path="url(#clipPath75)" />
    <g
       id="g75" />
    <text
       id="text75"
       xml:space="preserve"
       transform="matrix(0.86225292,0,0,0.86225292,177.30626,459.64167)"
       clip-path="url(#clipPath76)"><tspan
         style="font-variant:normal;font-weight:normal;font-size:12px;font-family:Arial;writing-mode:lr-tb;fill:#000000;fill-opacity:1;fill-rule:nonzero;stroke:none"
         x="0 6.6738281 9.3398438 16.013672 22.6875 29.361328"
         y="0"
         sodipodi:role="line"
         id="tspan75">Linear</tspan></text>
    <path
       id="path77"
       d="m 290,383 v 20 -21 13.63"
       style="fill:none;stroke:#000000;stroke-width:1;stroke-linecap:butt;stroke-linejoin:miter;stroke-miterlimit:10;stroke-dasharray:none;stroke-opacity:1"
       transform="matrix(0.86225292,0,0,0.86225292,-57.927118,-90.906822)"
       clip-path="url(#clipPath78)" />
    <path
       id="path79"
       d="m 290,400.88 -3.5,-7 3.5,1.75 3.5,-1.75 z"
       style="fill:#000000;fill-opacity:1;fill-rule:nonzero;stroke:#000000;stroke-width:1;stroke-linecap:butt;stroke-linejoin:miter;stroke-miterlimit:10;stroke-dasharray:none;stroke-opacity:1"
       transform="matrix(0.86225292,0,0,0.86225292,-57.927118,-90.906822)"
       clip-path="url(#clipPath80)" />
    <path
       id="path81"
       d="m 233,363 h 114 c 0.3978,0 0.78049,0.0761 1.14801,0.22833 0.36752,0.15225 0.69196,0.36902 0.9733,0.65033 0.28128,0.28128 0.49804,0.60568 0.65027,0.97324 0.15225,0.36752 0.22839,0.75024 0.22842,1.1481 v 14 c -3e-5,0.3978 -0.0762,0.78049 -0.22842,1.14804 -0.15223,0.36752 -0.36899,0.69193 -0.65027,0.97327 -0.28134,0.28128 -0.60578,0.49804 -0.9733,0.6503 C 347.78049,382.92383 347.3978,382.99997 347,383 H 233 c -0.39784,-3e-5 -0.78053,-0.0762 -1.14807,-0.22839 -0.36755,-0.15226 -0.69197,-0.36902 -0.97327,-0.6503 -0.28132,-0.28134 -0.49809,-0.60578 -0.65033,-0.9733 C 230.0761,380.78049 229.99998,380.3978 230,380 v -14 c -2e-5,-0.39786 0.0761,-0.78058 0.22833,-1.1481 0.15224,-0.36756 0.36901,-0.69196 0.65033,-0.97324 0.2813,-0.28131 0.60572,-0.49808 0.97327,-0.65033 C 232.21947,363.07611 232.60216,363 233,363 Z"
       style="fill:#b1ddef;fill-opacity:1;fill-rule:nonzero;stroke:#1b7ba3;stroke-width:1;stroke-linecap:butt;stroke-linejoin:miter;stroke-miterlimit:10;stroke-dasharray:none;stroke-opacity:1"
       transform="matrix(0.86225292,0,0,0.86225292,-57.927118,-90.906822)"
       clip-path="url(#clipPath82)" />
    <g
       id="g82" />
    <text
       id="text82"
       xml:space="preserve"
       transform="matrix(0.86225292,0,0,0.86225292,178.46491,233.73141)"
       clip-path="url(#clipPath83)"><tspan
         style="font-variant:normal;font-weight:normal;font-size:12px;font-family:Arial;writing-mode:lr-tb;fill:#000000;fill-opacity:1;fill-rule:nonzero;stroke:none"
         x="0 8.6660156 15.339844 22.013672"
         y="0"
         sodipodi:role="line"
         id="tspan82">ReLU</tspan></text>
    <path
       id="path84"
       d="m 290,470 v 20 -20 13.63"
       style="fill:none;stroke:#000000;stroke-width:1;stroke-linecap:butt;stroke-linejoin:miter;stroke-miterlimit:10;stroke-dasharray:none;stroke-opacity:1"
       transform="matrix(0.86225292,0,0,0.86225292,-57.927118,-90.906822)"
       clip-path="url(#clipPath85)" />
    <path
       id="path86"
       d="m 290,488.88 -3.5,-7 3.5,1.75 3.5,-1.75 z"
       style="fill:#000000;fill-opacity:1;fill-rule:nonzero;stroke:#000000;stroke-width:1;stroke-linecap:butt;stroke-linejoin:miter;stroke-miterlimit:10;stroke-dasharray:none;stroke-opacity:1"
       transform="matrix(0.86225292,0,0,0.86225292,-57.927118,-90.906822)"
       clip-path="url(#clipPath87)" />
    <path
       id="path88"
       d="m 233,450 h 114 c 0.3978,0 0.78049,0.0761 1.14801,0.22833 0.36752,0.15222 0.69196,0.36899 0.9733,0.65033 0.28128,0.28128 0.49804,0.60572 0.65027,0.97324 0.15225,0.36755 0.22839,0.75024 0.22842,1.1481 v 14 c -3e-5,0.3978 -0.0762,0.78049 -0.22842,1.14801 -0.15223,0.36752 -0.36899,0.69196 -0.65027,0.9733 -0.28134,0.28128 -0.60578,0.49804 -0.9733,0.6503 C 347.78049,469.92386 347.3978,469.99997 347,470 H 233 c -0.39784,-3e-5 -0.78053,-0.0761 -1.14807,-0.22839 -0.36755,-0.15226 -0.69197,-0.36902 -0.97327,-0.6503 -0.28132,-0.28134 -0.49809,-0.60578 -0.65033,-0.9733 C 230.0761,467.78049 229.99998,467.3978 230,467 v -14 c -2e-5,-0.39786 0.0761,-0.78055 0.22833,-1.1481 0.15224,-0.36752 0.36901,-0.69196 0.65033,-0.97324 0.2813,-0.28134 0.60572,-0.49811 0.97327,-0.65033 C 232.21947,450.07611 232.60216,450 233,450 Z"
       style="fill:#fad9d5;fill-opacity:1;fill-rule:nonzero;stroke:#ae4132;stroke-width:1;stroke-linecap:butt;stroke-linejoin:miter;stroke-miterlimit:10;stroke-dasharray:none;stroke-opacity:1"
       transform="matrix(0.86225292,0,0,0.86225292,-57.927118,-90.906822)"
       clip-path="url(#clipPath89)" />
    <g
       id="g89" />
    <text
       id="text89"
       xml:space="preserve"
       transform="matrix(0.86225292,0,0,0.86225292,160.0612,308.74741)"
       clip-path="url(#clipPath90)"><tspan
         style="font-variant:normal;font-weight:normal;font-size:12px;font-family:Arial;writing-mode:lr-tb;fill:#000000;fill-opacity:1;fill-rule:nonzero;stroke:none"
         x="0 8.0039062 14.677734 18.011719 24.011719 30.685547 39.351562 46.025391 50.021484 60.017578 66.691406"
         y="0"
         sodipodi:role="line"
         id="tspan89">BatchNorm2d</tspan></text>
    <path
       id="path91"
       d="m 363.5,320 h 114 c 0.3978,0 0.78043,0.0761 1.14795,0.22833 0.36755,0.15225 0.69199,0.36902 0.97333,0.65033 0.28128,0.28128 0.49804,0.60572 0.6503,0.97324 0.15225,0.36755 0.22839,0.75024 0.22842,1.1481 v 14 c -3e-5,0.3978 -0.0762,0.78049 -0.22842,1.14801 -0.15226,0.36755 -0.36902,0.69199 -0.6503,0.9733 -0.28134,0.28128 -0.60578,0.49804 -0.97333,0.6503 -0.36752,0.15225 -0.75015,0.22836 -1.14795,0.22839 h -114 c -0.39786,-3e-5 -0.78055,-0.0761 -1.1481,-0.22839 -0.36756,-0.15226 -0.69196,-0.36902 -0.97324,-0.6503 -0.28131,-0.28131 -0.49808,-0.60575 -0.65033,-0.9733 C 360.57608,337.78049 360.49997,337.3978 360.5,337 v -14 c -3e-5,-0.39786 0.0761,-0.78055 0.22833,-1.1481 0.15225,-0.36752 0.36902,-0.69196 0.65033,-0.97324 0.28128,-0.28131 0.60568,-0.49808 0.97324,-0.65033 C 362.71945,320.07611 363.10214,320 363.5,320 Z"
       style="fill:#fad7ac;fill-opacity:1;fill-rule:nonzero;stroke:#b46504;stroke-width:1;stroke-linecap:butt;stroke-linejoin:miter;stroke-miterlimit:10;stroke-dasharray:none;stroke-opacity:1"
       transform="matrix(0.86225292,0,0,0.86225292,-57.927118,-90.906822)"
       clip-path="url(#clipPath92)" />
    <g
       id="g92" />
    <text
       id="text92"
       xml:space="preserve"
       transform="matrix(0.86225292,0,0,0.86225292,286.81238,196.65453)"
       clip-path="url(#clipPath93)"><tspan
         style="font-variant:normal;font-weight:normal;font-size:12px;font-family:Arial;writing-mode:lr-tb;fill:#000000;fill-opacity:1;fill-rule:nonzero;stroke:none"
         x="0 8.6660156 15.339844 22.013672 28.013672 34.6875"
         y="0"
         sodipodi:role="line"
         id="tspan92">Conv2d</tspan></text>
    <path
       id="path94"
       d="m 420.5,340 v 78.10001 l -107.45001,0.01"
       style="fill:none;stroke:#000000;stroke-width:1;stroke-linecap:butt;stroke-linejoin:miter;stroke-miterlimit:10;stroke-dasharray:none;stroke-opacity:1"
       transform="matrix(0.86225292,0,0,0.86225292,-57.927118,-90.906822)"
       clip-path="url(#clipPath95)" />
    <path
       id="path96"
       d="m 307.79999,418.10999 7,-3.5 -1.75,3.5 1.75,3.5 z"
       style="fill:#000000;fill-opacity:1;fill-rule:nonzero;stroke:#000000;stroke-width:1;stroke-linecap:butt;stroke-linejoin:miter;stroke-miterlimit:10;stroke-dasharray:none;stroke-opacity:1"
       transform="matrix(0.86225292,0,0,0.86225292,-57.927118,-90.906822)"
       clip-path="url(#clipPath97)" />
  </g>
</svg>
